<?xml version="1.0" encoding="utf-8"?>
<svg xmlns="http://www.w3.org/2000/svg" viewBox="0 0 48 48">
<path class="back-arrow-icon" fill="#DDDDDD" d="M41.73,20H16.372l7.561-7.64c0.972-0.972,0.972-2.602,0-3.574l-1.513-1.532
	c-0.973-0.972-2.563-0.982-3.536-0.01L3.459,22.665c-0.495,0.495-0.734,1.146-0.726,1.798c-0.01,0.654,0.23,1.308,0.726,1.804
	l15.426,15.425c0.972,0.972,2.563,0.971,3.535-0.001l1.514-1.514c0.972-0.972,0.972-2.555,0-3.526L16.272,29H41.73
	c1.925,0,3.27-1.593,3.27-3.518v-2.139C45,21.418,43.655,20,41.73,20z"/>
</svg>
