<?xml version="1.0" encoding="utf-8"?>
<svg xmlns="http://www.w3.org/2000/svg" viewBox="0 0 48 48">
<path fill="#666666" d="M14.436,19.646c0,1.694-1.388,3.083-3.083,3.083H3.831c-1.696,0-3.083-1.388-3.083-3.083V9.348
	c0-1.696,1.388-3.083,3.083-3.083h7.522c1.695,0,3.083,1.387,3.083,3.083V19.646z"/>
<path fill="#666666" d="M30.843,19.647c0,1.694-1.385,3.083-3.08,3.083H20.24c-1.696,0-3.083-1.388-3.083-3.083V9.348
	c0-1.696,1.388-3.083,3.083-3.083h7.522c1.695,0,3.08,1.387,3.08,3.083V19.647z"/>
<path fill="#666666" d="M47.254,19.647c0,1.694-1.388,3.083-3.082,3.083h-7.524c-1.694,0-3.082-1.388-3.082-3.083V9.348
	c0-1.696,1.388-3.083,3.082-3.083h7.524c1.694,0,3.082,1.387,3.082,3.083V19.647z"/>
<path fill="#666666" d="M14.436,38.652c0,1.694-1.388,3.083-3.083,3.083H3.831c-1.696,0-3.083-1.389-3.083-3.083V28.354
	c0-1.695,1.388-3.083,3.083-3.083h7.522c1.695,0,3.083,1.388,3.083,3.083V38.652z"/>
<path fill="#666666" d="M30.843,38.652c0,1.694-1.385,3.083-3.08,3.083H20.24c-1.696,0-3.083-1.389-3.083-3.083V28.354
	c0-1.695,1.388-3.083,3.083-3.083h7.522c1.695,0,3.08,1.388,3.08,3.083V38.652z"/>
<path fill="#666666" d="M47.254,38.652c0,1.694-1.388,3.083-3.082,3.083h-7.524c-1.694,0-3.082-1.389-3.082-3.083V28.354
	c0-1.695,1.388-3.083,3.082-3.083h7.524c1.694,0,3.082,1.388,3.082,3.083V38.652z"/>
</svg>
