<?xml version="1.0" encoding="utf-8"?>
<svg xmlns="http://www.w3.org/2000/svg" viewBox="0 0 48 48">
<path fill="#666666" d="M40.071,1.252h-22.17c-1.518,0-2.749,1.23-2.749,2.749v2.666h22.184v30.487h2.735
	c1.518,0,2.748-1.23,2.748-2.748V4.001C42.819,2.483,41.589,1.252,40.071,1.252z"/>
<g>
	<path fill="#666666" d="M30.099,46.747H7.929c-1.518,0-2.749-1.23-2.749-2.749V13.594c0-1.518,1.23-2.749,2.749-2.749h22.17
		c1.519,0,2.748,1.23,2.748,2.749v30.404C32.847,45.517,31.617,46.747,30.099,46.747z M10.677,41.25H27.35V16.343H10.677V41.25z"/>
</g>
</svg>
