<?xml version="1.0" encoding="utf-8"?>
<svg xmlns="http://www.w3.org/2000/svg" viewBox="0 0 48 48">
<g>
	<path fill="#666666" d="M46.545,6.872L46.481,6.82c-2.632-2.246-10.79,1.321-16.022,5.646l-5.426,4.441l4.625,3.786L46.545,6.872z"
		/>
	<path fill="#666666" d="M19.24,10.396c0-4.904-3.989-8.893-8.893-8.893c-4.903,0-8.892,3.989-8.892,8.893
		c0,4.903,3.989,8.892,8.892,8.892c0.167,0,0.331-0.016,0.496-0.025l5.655,4.629l-5.902,4.832c-0.083-0.003-0.165-0.013-0.249-0.013
		c-4.903,0-8.892,3.989-8.892,8.893c0,4.904,3.989,8.895,8.892,8.895c4.904,0,8.893-3.99,8.893-8.895c0-2.442-0.99-4.657-2.59-6.266
		l4.473-3.661l9.335,7.643c5.232,4.324,13.391,7.892,16.022,5.646l0.063-0.054L16.763,16.538
		C18.293,14.94,19.24,12.778,19.24,10.396z M5.639,10.396c0-2.597,2.112-4.709,4.708-4.709c2.597,0,4.709,2.113,4.709,4.709
		c0,2.596-2.112,4.708-4.709,4.708C7.751,15.104,5.639,12.992,5.639,10.396z M10.348,42.313c-2.596,0-4.708-2.112-4.708-4.71
		c0-2.597,2.112-4.709,4.708-4.709c2.597,0,4.709,2.112,4.709,4.709C15.057,40.201,12.944,42.313,10.348,42.313z"/>
</g>
</svg>
