<?xml version="1.0" encoding="utf-8"?>
<svg xmlns="http://www.w3.org/2000/svg" viewBox="0 0 48 48">
<g>
	<g>
		<path fill="#CCCCCC" d="M37.131,47.615h-0.642v-2h0.642c0.996,0,1.836-0.778,1.912-1.771l1.994,0.152
			C40.881,46.025,39.165,47.615,37.131,47.615z M33.489,47.615h-5v-2h5V47.615z M25.489,47.615h-5v-2h5V47.615z M17.49,47.615h-5v-2
			h5V47.615z M9.083,47.183c-1.315-0.677-2.132-2.013-2.132-3.486V41.9h2v1.796c0,0.721,0.402,1.376,1.048,1.709L9.083,47.183z
			 M41.049,40.92h-2v-5h2V40.92z M8.951,38.9h-2v-5h2V38.9z M41.049,32.92h-2v-5h2V32.92z M8.951,30.9h-2v-5h2V30.9z M41.049,24.92
			h-2v-5h2V24.92z M8.951,22.9h-2v-5h2V22.9z M41.049,16.92h-2v-4.585l-0.218-0.217l1.414-1.415l0.804,0.803V16.92z M8.951,14.9h-2
			v-5h2V14.9z M36.71,9.996L33.174,6.46l1.414-1.414l3.536,3.536L36.71,9.996z M8.951,6.9h-2V4.303c0-1.084,0.458-2.131,1.258-2.872
			l1.359,1.467C9.176,3.262,8.951,3.774,8.951,4.303V6.9z M31.053,4.339L29.1,2.386H27.69v-2h2.237l2.539,2.539L31.053,4.339z
			 M24.69,2.386h-5v-2h5V2.386z M16.69,2.386h-5v-2h5V2.386z"/>
	</g>
	<g>
		<path fill="#CCCCCC" d="M40.049,12.92h-4.165v-2h4.165V12.92z M32.884,12.92h-0.96c-2.167,0-3.409-1.241-3.409-3.405V9.386h2
			v0.129c0,1.05,0.355,1.405,1.409,1.405h0.96V12.92z M30.515,6.386h-2v-5h2V6.386z"/>
	</g>
</g>
</svg>
