<?xml version="1.0" encoding="utf-8"?>
<svg xmlns="http://www.w3.org/2000/svg" viewBox="0 0 48 48">
<path fill="#FFE05F" d="M40.633,11.48v32.933c0,1.663-1.362,3.024-3.024,3.024H10.391c-1.664,0-3.024-1.361-3.024-3.024V3.586
	c0-1.663,1.36-3.024,3.024-3.024h19.324L40.633,11.48z"/>
<linearGradient id="SVGID_1_" gradientUnits="userSpaceOnUse" x1="32.5879" y1="8.438" x2="43.1351" y2="18.9852">
	<stop  offset="0" style="stop-color:#000000;stop-opacity:0.8"/>
	<stop  offset="1" style="stop-color:#000000;stop-opacity:0"/>
</linearGradient>
<path opacity="0.4" fill="url(#SVGID_1_)" d="M40.633,11.478v10.01L30.259,10.767c0.423,0.407,1.119,0.711,1.951,0.711H40.633z"/>
<path fill="#D3B740" d="M29.715,0.896v8.093c0,1.664,0.835,2.492,2.498,2.492h8.086h0.334L29.715,0.563V0.896z"/>
<g>
	<g>
		<rect x="18.027" y="0.563" fill="#918039" width="3.444" height="30.173"/>
		<rect x="18.027" y="0.563" fill="#E0E0E0" width="2.305" height="1.8"/>
		<rect x="19.167" y="2.589" fill="#E0E0E0" width="2.304" height="1.8"/>
		<rect x="18.027" y="4.616" fill="#E0E0E0" width="2.305" height="1.8"/>
		<rect x="19.167" y="6.643" fill="#E0E0E0" width="2.304" height="1.8"/>
		<rect x="18.027" y="8.669" fill="#E0E0E0" width="2.305" height="1.8"/>
		<rect x="19.167" y="10.695" fill="#E0E0E0" width="2.304" height="1.8"/>
		<rect x="18.027" y="12.722" fill="#E0E0E0" width="2.305" height="1.8"/>
		<rect x="19.167" y="14.749" fill="#E0E0E0" width="2.304" height="1.8"/>
		<rect x="18.027" y="16.775" fill="#E0E0E0" width="2.305" height="1.8"/>
		<rect x="19.167" y="18.802" fill="#E0E0E0" width="2.304" height="1.8"/>
		<rect x="18.027" y="20.829" fill="#E0E0E0" width="2.305" height="1.8"/>
		<rect x="19.167" y="22.855" fill="#E0E0E0" width="2.304" height="1.799"/>
		<rect x="18.027" y="24.882" fill="#E0E0E0" width="2.305" height="1.8"/>
		<rect x="19.167" y="26.909" fill="#E0E0E0" width="2.304" height="1.799"/>
		<rect x="18.027" y="28.935" fill="#E0E0E0" width="2.305" height="1.801"/>
	</g>
	<g>
		<g>
			<path fill="#E0E0E0" d="M18.069,34.36h3.361l0.543-4.078c0,0-0.741-0.854-2.184-0.854c-1.443,0-2.264,0.854-2.264,0.854
				L18.069,34.36z"/>
			<path fill="#918039" d="M21.43,34.485h-3.361c-0.063,0-0.116-0.047-0.124-0.108L17.402,30.3
				c-0.005-0.038,0.007-0.076,0.034-0.104c0.035-0.036,0.875-0.893,2.354-0.893c1.482,0,2.246,0.86,2.277,0.896
				c0.023,0.027,0.035,0.063,0.03,0.099l-0.543,4.078C21.545,34.438,21.493,34.485,21.43,34.485z M18.178,34.235h3.143l0.521-3.91
				c-0.165-0.161-0.863-0.771-2.052-0.771c-1.191,0-1.95,0.612-2.131,0.776L18.178,34.235z"/>
		</g>
		<g>
			<path fill="#E0E0E0" d="M18.506,31.895v8.357H21v-8.357H18.506z M20.52,33.844h-1.541v-1.25h1.541V33.844z"/>
			<path fill="#918039" d="M21.125,40.377h-2.743V31.77h2.743V40.377z M18.631,40.127h2.243V32.02h-2.243V40.127z M20.645,33.969
				h-1.791v-1.5h1.791V33.969z M19.104,33.719h1.291v-1h-1.291V33.719z"/>
		</g>
		<g>
			<rect x="19.315" y="30.75" fill="#E0E0E0" width="0.875" height="2.531"/>
			<path fill="#918039" d="M20.315,33.406H19.19v-2.781h1.125V33.406z M19.44,33.156h0.625v-2.281H19.44V33.156z"/>
		</g>
	</g>
</g>
</svg>
