<?xml version="1.0" encoding="utf-8"?>
<svg xmlns="http://www.w3.org/2000/svg" viewBox="0 0 48 48">
<path fill="#001D26" stroke="#00C8FF" stroke-miterlimit="10" d="M40.633,11.48v32.933c0,1.663-1.362,3.024-3.024,3.024H10.391
	c-1.664,0-3.024-1.361-3.024-3.024V3.586c0-1.663,1.36-3.024,3.024-3.024h19.324L40.633,11.48z"/>
<linearGradient id="SVGID_1_" gradientUnits="userSpaceOnUse" x1="32.5879" y1="8.438" x2="43.1351" y2="18.9852">
	<stop  offset="0" style="stop-color:#000000;stop-opacity:0.8"/>
	<stop  offset="1" style="stop-color:#000000;stop-opacity:0"/>
</linearGradient>
<path opacity="0.4" fill="url(#SVGID_1_)" d="M40.633,11.478v10.01L30.259,10.767c0.423,0.407,1.119,0.711,1.951,0.711H40.633z"/>
<path fill="#00C8FF" stroke="#00C8FF" stroke-linejoin="round" stroke-miterlimit="10" d="M29.715,0.896v8.093
	c0,1.664,0.835,2.492,2.498,2.492h8.086h0.334L29.715,0.563V0.896z"/>
<g>
	<path fill="#00C8FF" d="M15.691,18.388c0.93-0.155,2.147-0.288,3.698-0.288c1.904,0,3.299,0.442,4.185,1.24
		c0.819,0.708,1.306,1.793,1.306,3.122c0,1.351-0.398,2.414-1.151,3.189c-1.019,1.084-2.679,1.639-4.561,1.639
		c-0.576,0-1.107-0.023-1.55-0.133v5.977h-1.926V18.388z M17.617,25.584c0.421,0.109,0.952,0.154,1.594,0.154
		c2.325,0,3.742-1.129,3.742-3.188c0-1.971-1.395-2.923-3.521-2.923c-0.841,0-1.483,0.066-1.815,0.155V25.584z"/>
	<path fill="#00C8FF" d="M25.778,31.141c0.575,0.377,1.594,0.775,2.568,0.775c1.417,0,2.081-0.709,2.081-1.594
		c0-0.932-0.554-1.439-1.992-1.971c-1.927-0.688-2.834-1.75-2.834-3.033c0-1.728,1.395-3.145,3.697-3.145
		c1.085,0,2.037,0.31,2.635,0.664l-0.487,1.417c-0.421-0.266-1.195-0.62-2.192-0.62c-1.15,0-1.793,0.664-1.793,1.46
		c0,0.887,0.643,1.285,2.037,1.816c1.859,0.709,2.812,1.639,2.812,3.232c0,1.881-1.461,3.211-4.007,3.211
		c-1.174,0-2.259-0.289-3.012-0.73L25.778,31.141z"/>
</g>
</svg>
