<?xml version="1.0" encoding="utf-8"?>
<svg xmlns="http://www.w3.org/2000/svg" viewBox="0 0 48 48">
<path fill="#492708" stroke="#FFB542" stroke-miterlimit="10" d="M40.633,11.48v32.933c0,1.663-1.362,3.024-3.024,3.024H10.391
	c-1.664,0-3.024-1.361-3.024-3.024V3.586c0-1.663,1.36-3.024,3.024-3.024h19.324L40.633,11.48z"/>
<linearGradient id="SVGID_1_" gradientUnits="userSpaceOnUse" x1="32.5879" y1="8.438" x2="43.1351" y2="18.9852">
	<stop  offset="0" style="stop-color:#000000;stop-opacity:0.8"/>
	<stop  offset="1" style="stop-color:#000000;stop-opacity:0"/>
</linearGradient>
<path opacity="0.4" fill="url(#SVGID_1_)" d="M40.633,11.478v10.01L30.259,10.767c0.423,0.407,1.119,0.711,1.951,0.711H40.633z"/>
<path fill="#FFB542" stroke="#FFB542" stroke-linejoin="round" stroke-miterlimit="10" d="M29.715,0.896v8.093
	c0,1.664,0.835,2.492,2.498,2.492h8.086h0.334L29.715,0.563V0.896z"/>
<g>
	<path fill="#FFB542" d="M19.742,29.071l-1.564,4.738h-2.013l5.12-15.068h2.347l5.141,15.068h-2.078l-1.611-4.738H19.742z
		 M24.683,27.551l-1.475-4.338c-0.335-0.983-0.559-1.877-0.782-2.751H22.38c-0.223,0.896-0.469,1.813-0.76,2.729l-1.476,4.36H24.683
		z"/>
	<path fill="#FFB542" d="M31.834,19.372c0.021,0.67-0.471,1.209-1.252,1.209c-0.693,0-1.186-0.539-1.186-1.209
		c0-0.691,0.514-1.23,1.23-1.23C31.363,18.142,31.834,18.681,31.834,19.372z M29.631,33.81l0.012-11.396h1.969L31.6,33.81H29.631z"
		/>
</g>
</svg>
