<?xml version="1.0" encoding="utf-8"?>
<svg xmlns="http://www.w3.org/2000/svg" viewBox="0 0 48 48">
<path fill="#F7DF1E" d="M40.633,11.48v32.933c0,1.663-1.361,3.024-3.023,3.024H10.391c-1.664,0-3.024-1.361-3.024-3.024V3.586
	c0-1.663,1.36-3.024,3.024-3.024h19.324L40.633,11.48z"/>
<linearGradient id="SVGID_1_" gradientUnits="userSpaceOnUse" x1="314.5889" y1="-331.438" x2="325.1361" y2="-341.9852" gradientTransform="matrix(1 0 0 -1 -282 -323)">
	<stop  offset="0" style="stop-color:#000000;stop-opacity:0.8"/>
	<stop  offset="1" style="stop-color:#000000;stop-opacity:0"/>
</linearGradient>
<path opacity="0.4" fill="url(#SVGID_1_)" enable-background="new    " d="M40.633,11.478v10.01L30.259,10.767
	c0.423,0.407,1.119,0.711,1.951,0.711H40.633z"/>
<path fill="#E5BF05" d="M29.715,0.896v8.093c0,1.664,0.835,2.492,2.498,2.492h8.086h0.334L29.715,0.563V0.896z"/>
<path d="M29.798,39.753c0.608,0.992,1.399,1.723,2.799,1.723c1.175,0,1.926-0.588,1.926-1.4c0-0.973-0.771-1.316-2.065-1.883
	l-0.709-0.305c-2.047-0.871-3.407-1.965-3.407-4.273c0-2.128,1.622-3.748,4.154-3.748c1.805,0,3.101,0.629,4.035,2.271l-2.209,1.418
	c-0.486-0.871-1.012-1.215-1.826-1.215c-0.83,0-1.356,0.527-1.356,1.215c0,0.852,0.526,1.196,1.744,1.724l0.708,0.304
	c2.411,1.033,3.771,2.088,3.771,4.457c0,2.553-2.006,3.953-4.7,3.953c-2.635,0-4.337-1.256-5.17-2.902L29.798,39.753z
	 M19.777,39.997c0.445,0.791,0.851,1.461,1.826,1.461c0.932,0,1.52-0.365,1.52-1.783v-9.646h2.837v9.684
	c0,2.939-1.723,4.275-4.237,4.275c-2.271,0-3.586-1.176-4.255-2.592L19.777,39.997z"/>
</svg>
