<?xml version="1.0" encoding="utf-8"?>
<svg xmlns="http://www.w3.org/2000/svg" viewBox="0 0 48 48">
<path fill="#1B598E" d="M40.633,11.48v32.933c0,1.663-1.361,3.024-3.023,3.024H10.391c-1.664,0-3.024-1.361-3.024-3.024V3.586
	c0-1.663,1.36-3.024,3.024-3.024h19.324L40.633,11.48z"/>
<linearGradient id="SVGID_1_" gradientUnits="userSpaceOnUse" x1="314.5889" y1="-331.438" x2="325.1361" y2="-341.9852" gradientTransform="matrix(1 0 0 -1 -282 -323)">
	<stop  offset="0" style="stop-color:#000000;stop-opacity:0.8"/>
	<stop  offset="1" style="stop-color:#000000;stop-opacity:0"/>
</linearGradient>
<path opacity="0.4" fill="url(#SVGID_1_)" enable-background="new    " d="M40.633,11.478v10.01L30.259,10.767
	c0.423,0.407,1.119,0.711,1.951,0.711H40.633z"/>
<path fill="#1A4674" d="M29.715,0.896v8.093c0,1.664,0.835,2.492,2.498,2.492h8.086h0.334L29.715,0.563V0.896z"/>
<path fill="#FCFCFC" d="M36.305,23.433c0-0.465-0.1-0.876-0.301-1.229c-0.197-0.346-0.493-0.638-0.89-0.867
	c-3.277-1.889-6.556-3.772-9.832-5.664c-0.883-0.509-1.739-0.491-2.616,0.026c-1.304,0.769-7.834,4.51-9.78,5.637
	c-0.801,0.464-1.191,1.173-1.191,2.096c-0.001,3.8,0,7.6-0.001,11.398c0,0.456,0.096,0.858,0.288,1.207
	c0.198,0.357,0.498,0.655,0.904,0.891c1.946,1.127,8.477,4.867,9.78,5.636c0.877,0.52,1.733,0.536,2.617,0.026
	c3.275-1.891,6.556-3.773,9.832-5.664c0.405-0.233,0.706-0.534,0.904-0.892c0.191-0.346,0.286-0.748,0.286-1.204
	C36.306,34.83,36.306,27.233,36.305,23.433"/>
<path fill="#C6C6C6" d="M24.039,29.094l-12.057,6.943c0.198,0.357,0.498,0.655,0.904,0.891c1.946,1.127,8.477,4.867,9.78,5.636
	c0.877,0.52,1.733,0.536,2.617,0.026c3.275-1.891,6.556-3.773,9.832-5.664c0.405-0.233,0.706-0.534,0.904-0.892L24.039,29.094"/>
<path fill="#C6C6C6" d="M20.467,31.152c0.702,1.224,2.021,2.049,3.533,2.049c1.523,0,2.849-0.835,3.547-2.074l-3.508-2.033
	L20.467,31.152"/>
<path fill="#E5E5E5" d="M36.305,23.433c0-0.465-0.1-0.876-0.301-1.229l-11.965,6.89l11.981,6.94
	c0.191-0.346,0.286-0.748,0.286-1.204C36.306,34.83,36.306,27.233,36.305,23.433"/>
<path fill="#1B598E" d="M35.646,29.59h-0.936v0.938h-0.937V29.59h-0.937v-0.935h0.937v-0.938h0.937v0.938h0.936V29.59 M32.23,29.59
	h-0.937v0.938h-0.937V29.59h-0.936v-0.935h0.936v-0.938h0.937v0.938h0.937V29.59"/>
<path fill="#1B598E" d="M27.547,31.127c-0.698,1.239-2.023,2.074-3.547,2.074c-1.512,0-2.831-0.825-3.533-2.049
	c-0.353-0.615-0.537-1.312-0.537-2.02c0-2.248,1.822-4.072,4.07-4.072c1.503,0,2.815,0.816,3.521,2.029l3.558-2.05
	c-1.414-2.44-4.054-4.082-7.078-4.082c-4.514,0-8.173,3.661-8.173,8.175c0,1.479,0.394,2.869,1.082,4.067
	c1.411,2.451,4.058,4.105,7.091,4.105c3.039,0,5.691-1.661,7.099-4.119L27.547,31.127"/>
</svg>
