<?xml version="1.0" encoding="utf-8"?>
<svg xmlns="http://www.w3.org/2000/svg" viewBox="0 0 48 48">
<path fill="#F16529" d="M40.633,11.48v32.933c0,1.663-1.362,3.024-3.024,3.024H10.391c-1.664,0-3.024-1.361-3.024-3.024V3.586
	c0-1.663,1.36-3.024,3.024-3.024h19.324L40.633,11.48z"/>
<linearGradient id="SVGID_1_" gradientUnits="userSpaceOnUse" x1="32.5879" y1="8.438" x2="43.1351" y2="18.9852">
	<stop  offset="0" style="stop-color:#000000;stop-opacity:0.8"/>
	<stop  offset="1" style="stop-color:#000000;stop-opacity:0"/>
</linearGradient>
<path opacity="0.4" fill="url(#SVGID_1_)" d="M40.633,11.478v10.01L30.259,10.767c0.423,0.407,1.119,0.711,1.951,0.711H40.633z"/>
<path fill="#E44D26" d="M29.715,0.896v8.093c0,1.664,0.835,2.492,2.498,2.492h8.086h0.334L29.715,0.563V0.896z"/>
<g>
	<g>
		<path id="path3036" fill="#444444" d="M14.581,15.575h1.469v1.452h1.344v-1.452h1.469v4.396
			h-1.469v-1.472H16.05v1.472h-1.469V15.575L14.581,15.575z"/>
		<path id="path3038" fill="#444444" d="M20.796,17.033h-1.294v-1.458h4.058v1.458h-1.294v2.938
			h-1.47V17.033L20.796,17.033z"/>
		<path id="path3040" fill="#444444" d="M24.203,15.575h1.533l0.941,1.545l0.942-1.545h1.531
			v4.396h-1.463v-2.179l-1.011,1.563h-0.024l-1.013-1.563v2.179h-1.438V15.575L24.203,15.575z"/>
		<path id="path3042" fill="#444444" d="M29.883,15.575h1.471v2.943h2.065v1.453h-3.536V15.575z"
			/>
	</g>
	<g>
		<polygon id="polygon3032" fill="#FFFFFF" points="18.517,25.142 24.012,25.142 24.012,21.257 23.998,21.257 14.273,21.257 
			14.366,22.299 15.32,33.002 24.012,33.002 24.012,29.119 18.872,29.119 		"/>
		<polygon id="polygon3034" fill="#FFFFFF" points="19.393,34.944 17.29,34.944 15.494,34.944 16.039,41.042 23.993,43.25 
			24.012,43.245 24.012,39.205 23.995,39.21 19.669,38.042 		"/>
		<polygon id="polygon3044" fill="#FFFFFF" points="23.998,33.002 28.78,33.002 28.33,38.04 23.998,39.208 23.998,43.249 
			31.961,41.042 32.019,40.386 32.931,30.162 33.025,29.119 31.979,29.119 23.998,29.119 		"/>
		<polygon id="polygon3046" fill="#FFFFFF" points="23.998,25.132 23.998,25.142 33.366,25.142 33.366,25.142 33.379,25.142 
			33.458,24.268 33.634,22.299 33.727,21.257 23.998,21.257 23.998,23.67 		"/>
	</g>
</g>
</svg>
