<?xml version="1.0" encoding="utf-8"?>
<svg xmlns="http://www.w3.org/2000/svg" viewBox="0 0 48 48">
<path fill="#2965F1" d="M40.633,11.48v32.933c0,1.663-1.362,3.024-3.024,3.024H10.391c-1.664,0-3.024-1.361-3.024-3.024V3.586
	c0-1.663,1.36-3.024,3.024-3.024h19.324L40.633,11.48z"/>
<linearGradient id="SVGID_1_" gradientUnits="userSpaceOnUse" x1="32.5879" y1="8.438" x2="43.1351" y2="18.9852">
	<stop  offset="0" style="stop-color:#000000;stop-opacity:0.8"/>
	<stop  offset="1" style="stop-color:#000000;stop-opacity:0"/>
</linearGradient>
<path opacity="0.4" fill="url(#SVGID_1_)" d="M40.633,11.478v10.01L30.259,10.767c0.423,0.407,1.119,0.711,1.951,0.711H40.633z"/>
<path fill="#264DE4" d="M29.715,0.896v8.093c0,1.664,0.835,2.492,2.498,2.492h8.086h0.334L29.715,0.563V0.896z"/>
<g>
	<path id="path2999_1_" fill="#444444" d="M18.127,15.552h3.453v1.445h-2.01v1.443h2.01v1.445
		h-3.453V15.552z"/>
	<path id="path3001_1_" fill="#444444" d="M22.272,15.552h3.455v1.256h-2.009v0.252h2.009v2.889
		h-3.455V18.63h2.01v-0.252h-2.01V15.552z"/>
	<path id="path3003_1_" fill="#444444" d="M26.416,15.552h3.455v1.256h-2.01v0.252h2.01v2.889
		h-3.455V18.63h2.01v-0.252h-2.01V15.552z"/>
</g>
<g>
	<polygon id="polygon2993" fill="#FFFFFF" points="14.993,29.059 15.342,32.955 24.065,32.955 24.065,29.059 	"/>
	<polygon id="polygon2995" fill="#FFFFFF" points="14.291,21.169 14.646,25.066 24.065,25.066 24.065,21.169 24.05,21.169 	"/>
	<polygon id="polygon2997" fill="#FFFFFF" points="24.065,39.181 24.047,39.185 19.707,38.013 19.43,34.905 17.32,34.905 
		15.516,34.905 16.063,41.022 24.046,43.24 24.065,43.236 	"/>
	<polygon id="polygon3005" fill="#FFFFFF" points="33.006,29.059 33.71,21.169 23.946,21.169 23.946,25.066 29.439,25.066 
		29.084,29.059 23.946,29.059 23.946,32.955 28.746,32.955 28.294,38.011 23.946,39.183 23.946,43.238 31.937,41.022 31.996,40.364 
		32.912,30.104 	"/>
</g>
</svg>
