<?xml version="1.0" encoding="utf-8"?>
<svg xmlns="http://www.w3.org/2000/svg" viewBox="0 0 48 48">
<path fill="#A9B9CB" d="M40.633,11.48v32.933c0,1.663-1.362,3.024-3.024,3.024H10.391c-1.664,0-3.024-1.361-3.024-3.024V3.586
	c0-1.663,1.36-3.024,3.024-3.024h19.324L40.633,11.48z"/>
<linearGradient id="SVGID_1_" gradientUnits="userSpaceOnUse" x1="32.5879" y1="8.438" x2="43.1351" y2="18.9852">
	<stop  offset="0" style="stop-color:#000000;stop-opacity:0.8"/>
	<stop  offset="1" style="stop-color:#000000;stop-opacity:0"/>
</linearGradient>
<path opacity="0.4" fill="url(#SVGID_1_)" d="M40.633,11.478v10.01L30.259,10.767c0.423,0.407,1.119,0.711,1.951,0.711H40.633z"/>
<path fill="#7F8B99" d="M29.715,0.896v8.093c0,1.664,0.835,2.492,2.498,2.492h8.086h0.334L29.715,0.563V0.896z"/>
<path fill="#F2F2F2" d="M36.276,23.833c0-0.463-0.1-0.874-0.3-1.228c-0.197-0.346-0.493-0.637-0.89-0.866
	c-3.268-1.885-6.541-3.767-9.809-5.656c-0.88-0.509-1.734-0.491-2.608,0.026c-1.302,0.768-7.817,4.503-9.757,5.63
	c-0.8,0.463-1.188,1.172-1.188,2.093c-0.001,3.792,0,7.587-0.001,11.382c0,0.455,0.095,0.857,0.287,1.205
	c0.197,0.355,0.497,0.654,0.901,0.889c1.942,1.127,8.457,4.859,9.758,5.631c0.875,0.516,1.729,0.535,2.61,0.025
	c3.269-1.891,6.54-3.771,9.809-5.656c0.406-0.234,0.705-0.535,0.902-0.889c0.191-0.35,0.287-0.752,0.287-1.205
	C36.277,35.215,36.277,27.627,36.276,23.833"/>
<path fill="#D8D8D8" d="M25.257,16.108c-0.88-0.507-1.732-0.489-2.605,0.026c-1.299,0.767-7.803,4.492-9.741,5.615
	c-0.798,0.462-1.187,1.168-1.187,2.087c-0.001,3.784,0,7.569-0.001,11.356c0,0.453,0.095,0.852,0.286,1.199
	c0.197,0.355,0.496,0.654,0.901,0.889c0.644,0.373,1.289,0.742,1.933,1.113l17.946-17.945
	C30.277,19.001,27.766,17.557,25.257,16.108"/>
<path fill="#7F8B99" d="M26.538,27.793l3.82,0.027c0-1.59-1.611-5.49-6.232-5.49c-2.943,0-6.901,1.87-6.901,7.251
	c0,5.381,3.88,7.135,6.901,7.135c4.895,0,6.063-3.385,6.063-5.299l-3.645-0.209c0,0,0.097,2.213-2.437,2.213
	c-2.34,0-2.73-2.865-2.73-3.84c0-1.482,0.526-3.861,2.73-3.861C26.311,25.721,26.538,27.793,26.538,27.793"/>
</svg>
