<?xml version="1.0" encoding="utf-8"?>
<svg xmlns="http://www.w3.org/2000/svg" viewBox="0 0 48 48">
<g id="Layer_1">
	<path fill="#E8E8E8" stroke="#000000" stroke-width="0.1" stroke-miterlimit="10" d="M40.633,11.48v32.933
		c0,1.663-1.362,3.024-3.024,3.024H10.391c-1.664,0-3.024-1.361-3.024-3.024V3.586c0-1.663,1.36-3.024,3.024-3.024h19.324
		L40.633,11.48z"/>
	<linearGradient id="SVGID_1_" gradientUnits="userSpaceOnUse" x1="32.5879" y1="8.438" x2="43.1351" y2="18.9852">
		<stop  offset="0" style="stop-color:#000000;stop-opacity:0.8"/>
		<stop  offset="1" style="stop-color:#000000;stop-opacity:0"/>
	</linearGradient>
	<path opacity="0.4" fill="url(#SVGID_1_)" d="M40.633,11.478v10.01L30.259,10.767c0.423,0.407,1.119,0.711,1.951,0.711H40.633z"/>
	<path fill="#7C7C7C" d="M29.715,0.896v8.093c0,1.664,0.835,2.492,2.498,2.492h8.086h0.334L29.715,0.563V0.896z"/>
</g>
<g id="Layer_2">
	<g>
		<path fill="#7C7C7C" d="M11.957,28.025c0.148,0.228,0.19,0.619,0.092,0.872l-0.634,1.666c-0.099,0.253-0.39,0.513-0.652,0.577
			l-1.046,0.259c-0.262,0.066-0.471,0.343-0.466,0.612l0.034,1.854c0.005,0.27,0.226,0.539,0.487,0.597l1.25,0.278
			c0.265,0.056,0.572,0.308,0.682,0.554l0.562,1.262c0.11,0.246,0.089,0.639-0.049,0.871l-0.405,0.914
			c-0.138,0.23-0.089,0.574,0.107,0.759l1.326,1.252c0.197,0.186,0.54,0.214,0.764,0.063l0.954-0.508
			c0.223-0.153,0.615-0.198,0.865-0.102l1.206,0.46c0.252,0.097,0.522,0.388,0.599,0.647l0.362,1.194
			c0.079,0.26,0.363,0.463,0.633,0.453l1.806-0.063c0.271-0.011,0.535-0.235,0.585-0.5l0.22-1.132
			c0.051-0.265,0.296-0.573,0.542-0.685l1.482-0.661c0.246-0.109,0.638-0.088,0.874,0.044l0.934,0.539
			c0.235,0.136,0.58,0.082,0.765-0.112l1.252-1.328c0.185-0.196,0.216-0.542,0.068-0.77l-0.594-0.904
			c-0.149-0.228-0.192-0.618-0.097-0.87l0.552-1.439c0.097-0.252,0.39-0.511,0.65-0.575l1.112-0.274
			c0.262-0.064,0.471-0.339,0.46-0.607l-0.052-1.824c-0.007-0.271-0.231-0.534-0.496-0.588l-1.081-0.22
			c-0.265-0.055-0.57-0.301-0.682-0.548l-0.635-1.42c-0.109-0.248-0.089-0.64,0.047-0.873l0.609-1.049
			c0.136-0.234,0.085-0.578-0.11-0.763l-1.327-1.25c-0.198-0.187-0.542-0.216-0.768-0.066l-0.941,0.627
			c-0.224,0.15-0.616,0.192-0.868,0.096l-1.579-0.604c-0.253-0.095-0.516-0.389-0.585-0.649l-0.281-1.065
			c-0.07-0.262-0.347-0.468-0.615-0.458l-1.809,0.065c-0.268,0.01-0.53,0.234-0.584,0.5l-0.202,1.047
			c-0.051,0.264-0.295,0.573-0.542,0.683l-1.543,0.688c-0.249,0.112-0.643,0.09-0.877-0.042l-0.762-0.438
			c-0.233-0.135-0.578-0.084-0.764,0.112l-1.251,1.326c-0.185,0.196-0.215,0.544-0.069,0.77L11.957,28.025z M15.495,29.224
			c1.927-2.043,5.146-2.137,7.19-0.21c2.043,1.929,2.139,5.146,0.21,7.19c-1.928,2.042-5.147,2.138-7.19,0.211
			C13.66,34.487,13.566,31.268,15.495,29.224z"/>
		<path fill="#7C7C7C" d="M29.131,22.126c-0.181-0.064-0.428-0.008-0.536,0.146l-0.905,1.275c-0.109,0.157-0.103,0.407,0.018,0.557
			l0.825,1.037c0.12,0.148,0.201,0.428,0.181,0.618l-0.046,0.454c-0.02,0.189-0.155,0.446-0.301,0.569l-0.957,0.811
			c-0.146,0.124-0.125,0.348-0.047,0.522l0.636,1.419c0.079,0.174,0.222,0.316,0.411,0.29l1.242-0.174
			c0.189-0.027,0.473,0.044,0.627,0.156l0.365,0.266c0.157,0.112,0.309,0.36,0.341,0.548l0.222,1.321
			c0.032,0.188,0.214,0.363,0.404,0.382l1.559,0.171c0.189,0.021,0.409-0.096,0.481-0.273l0.51-1.208
			c0.073-0.177,0.295-0.341,0.47-0.42l0.371-0.166c0.175-0.079,0.446-0.136,0.626-0.069l1.231,0.397
			c0.181,0.065,0.421-0.012,0.529-0.167l0.916-1.282c0.11-0.156,0.109-0.407-0.008-0.559l-0.812-1.053
			c-0.119-0.152-0.183-0.438-0.163-0.629l0.075-0.431c0.02-0.19,0.222-0.476,0.368-0.599l0.926-0.809
			c0.146-0.123,0.182-0.344,0.104-0.519l-0.636-1.42c-0.079-0.174-0.277-0.317-0.467-0.289l-1.364,0.185
			c-0.19,0.027-0.47-0.04-0.625-0.152l-0.314-0.229c-0.154-0.11-0.309-0.357-0.345-0.545l-0.249-1.34
			c-0.035-0.188-0.217-0.355-0.407-0.376l-1.552-0.159c-0.189-0.021-0.401,0.117-0.473,0.294l-0.489,1.246
			c-0.071,0.176-0.256,0.426-0.43,0.504l-0.394,0.177c-0.176,0.078-0.484,0.049-0.663-0.015L29.131,22.126z M31.973,24.012
			c1.324-0.593,2.875-0.002,3.47,1.321c0.592,1.321,0.001,2.874-1.321,3.468c-1.324,0.592-2.875,0.002-3.469-1.321
			C30.06,26.157,30.651,24.605,31.973,24.012z"/>
		<path fill="#7C7C7C" d="M19.85,20.596c-0.111,0.06-0.195,0.209-0.164,0.334l0.238,1.017c0.03,0.123,0.157,0.231,0.284,0.236
			l0.884,0.046c0.129,0.008,0.303,0.093,0.39,0.184l0.209,0.224c0.086,0.094,0.155,0.278,0.151,0.406l-0.017,0.835
			c-0.004,0.13,0.116,0.216,0.24,0.256l0.992,0.31c0.122,0.039,0.256,0.032,0.327-0.078l0.463-0.699
			c0.069-0.107,0.23-0.216,0.355-0.245l0.295-0.064c0.125-0.029,0.315,0.005,0.425,0.073l0.759,0.474
			c0.108,0.068,0.276,0.054,0.37-0.033l0.776-0.704c0.095-0.087,0.133-0.248,0.074-0.363l-0.377-0.79
			c-0.057-0.114-0.04-0.299-0.003-0.423l0.08-0.258c0.04-0.122,0.133-0.283,0.245-0.343l0.745-0.442
			c0.11-0.062,0.18-0.213,0.149-0.339l-0.235-1.025c-0.029-0.125-0.156-0.236-0.284-0.244l-0.889-0.06
			c-0.127-0.008-0.299-0.103-0.385-0.195l-0.181-0.229c-0.088-0.093-0.141-0.322-0.138-0.45l0.006-0.821
			c0.003-0.129-0.093-0.244-0.214-0.28l-0.994-0.312c-0.121-0.038-0.28,0-0.352,0.106l-0.51,0.765
			c-0.07,0.106-0.229,0.218-0.354,0.246l-0.253,0.055c-0.125,0.026-0.317-0.002-0.426-0.069l-0.782-0.469
			c-0.109-0.067-0.274-0.048-0.369,0.04l-0.768,0.704c-0.094,0.086-0.119,0.253-0.061,0.368l0.407,0.796
			c0.057,0.114,0.099,0.316,0.062,0.439l-0.086,0.276c-0.038,0.12-0.188,0.263-0.301,0.325L19.85,20.596z M22.052,20.007
			c0.289-0.926,1.273-1.439,2.197-1.151c0.925,0.289,1.44,1.274,1.15,2.197s-1.271,1.44-2.197,1.151
			C22.278,21.916,21.764,20.932,22.052,20.007z"/>
	</g>
</g>
</svg>
