<?xml version="1.0" encoding="utf-8"?>
<svg xmlns="http://www.w3.org/2000/svg" viewBox="0 0 48 48">
<path fill="#1EA5FF" d="M47,40.028C47,41.117,46.117,42,45.028,42H2.972C1.883,42,1,41.117,1,40.028V13.972
	C1,12.883,1.883,12,2.972,12h42.057C46.117,12,47,12.883,47,13.972V40.028z"/>
<path fill="#92D3FF" d="M45.03,9H21.27c-0.857,0-1.409-0.809-2.366-2.203C18.298,5.916,17.381,5,15.793,5H3.688
	C2.031,5,1,6.094,1,7.75v3.236v2.986C1,12.883,1.883,12,2.972,12h42.057C46.117,12,47,12.883,47,13.972v-2.986
	C47,9.896,46.119,9,45.03,9z"/>
<path fill="#92D3FF" d="M43.558,38c0-0.275-0.225-0.5-0.5-0.5H5.942c-0.275,0-0.5,0.225-0.5,0.5v0.029c0,0.275,0.225,0.5,0.5,0.5
	h37.115c0.275,0,0.5-0.225,0.5-0.5V38z"/>
<path fill="#92D3FF" d="M43.559,40.167c0-0.138-0.112-0.25-0.25-0.25H5.693c-0.138,0-0.25,0.112-0.25,0.25l0,0
	c0,0.138,0.112,0.25,0.25,0.25h37.616C43.446,40.417,43.559,40.305,43.559,40.167L43.559,40.167z"/>
</svg>
