<?xml version="1.0" encoding="utf-8"?>
<svg xmlns="http://www.w3.org/2000/svg" viewBox="0 0 48 48">
<path fill="#E5C955" d="M47,42.028C47,43.117,46.117,44,45.028,44H2.972C1.883,44,1,43.117,1,42.028V13.972
	C1,12.883,1.883,12,2.972,12h42.057C46.117,12,47,12.883,47,13.972V42.028z"/>
<path fill="#FFE05F" d="M45.03,9H21.27c-0.857,0-1.409-0.809-2.366-2.203C18.298,5.916,17.381,5,15.793,5H3.688
	C2.031,5,1,6.094,1,7.75v3.236v2.986C1,12.883,1.883,12,2.972,12h42.057C46.117,12,47,12.883,47,13.972v-2.986
	C47,9.896,46.119,9,45.03,9z"/>
<path fill="#DDB922" d="M43.558,40c0-0.275-0.225-0.5-0.5-0.5H5.942c-0.275,0-0.5,0.225-0.5,0.5v0.029c0,0.275,0.225,0.5,0.5,0.5
	h37.115c0.275,0,0.5-0.225,0.5-0.5V40z"/>
<path fill="#DDB922" d="M43.559,42.167c0-0.138-0.112-0.25-0.25-0.25H5.693c-0.138,0-0.25,0.112-0.25,0.25l0,0
	c0,0.138,0.112,0.25,0.25,0.25h37.616C43.446,42.417,43.559,42.305,43.559,42.167L43.559,42.167z"/>
</svg>
