<?xml version="1.0" encoding="utf-8"?>
<svg xmlns="http://www.w3.org/2000/svg" viewBox="0 0 48 48">
<path class="forward-arrow-icon" fill="#DDDDDD" d="M6.002,29H31.36L23.8,36.61c-0.972,0.972-0.972,2.588,0,3.56l1.512,1.525
	c0.973,0.973,2.564,0.979,3.536,0.006l15.425-15.423c0.494-0.495,0.734-1.147,0.727-1.799c0.01-0.654-0.23-1.309-0.727-1.805
	L28.848,7.249c-0.973-0.972-2.563-0.971-3.535,0.001l-1.514,1.514c-0.972,0.972-0.972,2.584,0,3.556L31.46,20H6.002
	C4.077,20,3,21.534,3,23.459v2.139C3,27.523,4.077,29,6.002,29z"/>
</svg>
