<?xml version="1.0" encoding="utf-8"?>
<svg xmlns="http://www.w3.org/2000/svg" viewBox="0 0 48 48">
<path fill="#666666" d="M10.709,14.275c0,1.221-1,2.221-2.221,2.221H3.069c-1.222,0-2.221-1-2.221-2.221V8.857
	c0-1.222,1-2.221,2.221-2.221h5.418c1.222,0,2.221,1,2.221,2.221V14.275z"/>
<path fill="#666666" d="M47.152,14.275c0,1.221-1,2.221-2.221,2.221H17.77c-1.222,0-2.221-1-2.221-2.221V8.857
	c0-1.222,1-2.221,2.221-2.221h27.162c1.221,0,2.221,1,2.221,2.221V14.275z"/>
<path fill="#666666" d="M10.709,27.65c0,1.221-1,2.221-2.221,2.221H3.069c-1.222,0-2.221-1-2.221-2.221v-5.418
	c0-1.222,1-2.221,2.221-2.221h5.418c1.222,0,2.221,1,2.221,2.221V27.65z"/>
<path fill="#666666" d="M47.152,27.65c0,1.221-1,2.221-2.221,2.221H17.77c-1.222,0-2.221-1-2.221-2.221v-5.418
	c0-1.222,1-2.221,2.221-2.221h27.162c1.221,0,2.221,1,2.221,2.221V27.65z"/>
<path fill="#666666" d="M10.709,41.025c0,1.221-1,2.221-2.221,2.221H3.069c-1.222,0-2.221-1-2.221-2.221v-5.418
	c0-1.223,1-2.222,2.221-2.222h5.418c1.222,0,2.221,0.999,2.221,2.222V41.025z"/>
<path fill="#666666" d="M47.152,41.025c0,1.221-1,2.221-2.221,2.221H17.77c-1.222,0-2.221-1-2.221-2.221v-5.418
	c0-1.223,1-2.222,2.221-2.222h27.162c1.221,0,2.221,0.999,2.221,2.222V41.025z"/>
</svg>
