<?xml version="1.0" encoding="utf-8"?>
<svg xmlns="http://www.w3.org/2000/svg" viewBox="0 0 256 256">
<g>
	<circle fill="#FFFFFF" cx="96" cy="128.799" r="2.785"/>
	<path fill="#FFFFFF" d="M96,147.699c-1.537,0-2.785,1.248-2.785,2.783c0,1.539,1.248,2.786,2.785,2.786
		c1.539,0,2.784-1.247,2.784-2.786C98.784,148.947,97.539,147.699,96,147.699z"/>
	<path fill="#FFFFFF" d="M96,168.604c-1.537,0-2.785,1.246-2.785,2.787c0,1.537,1.248,2.783,2.785,2.783
		c1.539,0,2.784-1.246,2.784-2.783C98.784,169.851,97.539,168.604,96,168.604z"/>
	<path fill="#FFFFFF" d="M205.127,104.66c-5.283-28.778-30.231-50.268-60.207-50.268c-28.961,0-53.243,20.045-59.609,47.084
		c-3.846-4.27-9.437-6.958-15.642-6.958c-11.626,0-21.073,9.425-21.073,21.05c0,1.683,0.16,3.334,0.541,4.901
		c-1.301-0.127-2.686-0.159-4.01-0.159c-22.182,0-41.402,18.244-41.402,40.743C3.725,183.376,22.318,202,44.19,202h160.582
		c26.569,0,48.096-22.207,48.096-48.765C252.867,126.769,231.534,104.66,205.127,104.66z M171,175.921
		c0,1.898-1.537,3.079-3.437,3.079H91.185c-1.898,0-3.185-1.181-3.185-3.079v-9.438c0-1.898,1.287-3.483,3.185-3.483h76.378
		c1.899,0,3.437,1.585,3.437,3.483V175.921z M171,154.719c0,1.902-1.537,3.281-3.437,3.281H91.185c-1.898,0-3.185-1.379-3.185-3.281
		v-9.438c0-1.9,1.287-3.281,3.185-3.281h76.378c1.899,0,3.437,1.381,3.437,3.281V154.719z M171,133.52
		c0,1.898-1.537,3.48-3.437,3.48H91.185c-1.898,0-3.185-1.582-3.185-3.48v-9.441c0-1.898,1.287-3.079,3.185-3.079h76.378
		c1.899,0,3.437,1.181,3.437,3.079V133.52z"/>
</g>
</svg>
