<?xml version="1.0" encoding="utf-8"?>
<svg xmlns="http://www.w3.org/2000/svg" viewBox="0 0 256 256">
<g class="fg-color" fill="#FFFFFF">
	<path d="M161.489,143.562c0,16.711-13.545,30.438-30.263,30.438H30.185l0,0c-13.762,0-25.461-11.473-25.461-25.519
		c0-14.157,12.094-25.513,26.051-25.513c0.833,0,1.705,0.082,2.523,0.162c-0.24-0.986-0.34-1.995-0.34-3.053
		c0-7.315,5.944-13.23,13.259-13.23c3.904,0,7.422,1.699,9.842,4.386c4.006-17.013,19.284-29.622,37.508-29.622
		c18.861,0,34.558,13.4,37.883,31.508C148.066,113.119,161.489,126.909,161.489,143.562z"/>
    <path d="M58.072,20.944C56.124,17.544,57.737,15,61.655,15h117.563c3.919,0,8.726,2.54,10.684,5.936
        l58.249,100.969c1.957,3.396,1.955,8.891-0.005,12.285L189.469,235.79c-1.96,3.395-6.77,6.163-10.688,6.171l-117.796,0.248
        c-3.918,0.008-5.521-2.765-3.563-6.159l14.637-25.114c1.959-3.395,6.769-5.936,10.688-5.936h72.721
        c3.919,0,8.739-3.008,10.712-6.395l37.201-63.959c1.973-3.387,2.004-9.005,0.07-12.413l-36.289-63.944
        c-1.935-3.408-6.724-6.239-10.643-6.272l-73.789-0.638c-3.919-0.034-8.719-2.727-10.667-6.127L58.072,20.944z"/>
</g>
<g class="secondary-color" fill="#E0E0E0">
	<path d="M59.756,127.962c-1.194,0-2.173,0.979-2.173,2.173v5.939c0,1.194,0.979,2.172,2.173,2.172h48.059
		c1.195,0,2.172-0.978,2.172-2.172v-5.939c0-1.195-0.978-2.173-2.172-2.173H59.756z M62.785,134.857
		c-0.967,0-1.752-0.785-1.752-1.753s0.785-1.751,1.752-1.751c0.968,0,1.752,0.783,1.752,1.751S63.753,134.857,62.785,134.857z"/>
	<path d="M59.756,141.305c-1.194,0-2.173,0.977-2.173,2.172v5.938c0,1.197,0.979,2.173,2.173,2.173h48.059
		c1.195,0,2.172-0.976,2.172-2.173v-5.938c0-1.195-0.978-2.172-2.172-2.172H59.756z M62.785,148.503
		c-0.967,0-1.752-0.785-1.752-1.754c0-0.966,0.785-1.751,1.752-1.751c0.968,0,1.752,0.785,1.752,1.751
		C64.537,147.718,63.753,148.503,62.785,148.503z"/>
	<path d="M59.756,154.645c-1.194,0-2.173,0.979-2.173,2.173v5.938c0,1.194,0.979,2.174,2.173,2.174h48.059
		c1.195,0,2.172-0.979,2.172-2.174v-5.938c0-1.194-0.978-2.173-2.172-2.173H59.756z M62.785,161.656
		c-0.967,0-1.752-0.783-1.752-1.751c0-0.969,0.785-1.753,1.752-1.753c0.968,0,1.752,0.784,1.752,1.753
		C64.537,160.873,63.753,161.656,62.785,161.656z"/>
</g>
</svg>
