<?xml version="1.0" encoding="utf-8"?>
<svg xmlns="http://www.w3.org/2000/svg" viewBox="0 0 256 256">
<g id="Layer_2">
	<rect fill="#92D3FF" width="256" height="256"/>
</g>
<g id="Layer_1">
	<g>
		<path fill="#FFFFFF" d="M82.941,154.626c-2.628,0-4.761,2.134-4.761,4.759c0,2.631,2.133,4.763,4.761,4.763
			c2.631,0,4.76-2.132,4.76-4.763C87.701,156.76,85.572,154.626,82.941,154.626z"/>
		<path fill="#FFFFFF" d="M205.127,104.66c-5.283-28.778-30.231-50.268-60.207-50.268c-28.961,0-53.243,20.045-59.609,47.084
			c-3.846-4.27-9.437-6.958-15.642-6.958c-11.626,0-21.073,9.425-21.073,21.05c0,1.683,0.16,3.334,0.541,4.901
			c-1.301-0.127-2.686-0.159-4.01-0.159c-22.182,0-41.402,18.244-41.402,40.743C3.725,183.376,22.318,202,44.19,202h160.582
			c26.569,0,48.096-22.207,48.096-48.765C252.867,126.769,231.534,104.66,205.127,104.66z M188,166.626
			c0,3.252-2.868,6.374-6.116,6.374H74.71c-3.245,0-5.71-3.12-5.71-6.373v-16.135c0-3.248,2.563-5.492,5.807-5.492h107.232
			c3.248,0,5.961,2.242,5.961,5.49V166.626z"/>
	</g>
</g>
</svg>
