<?xml version="1.0" encoding="utf-8"?>
<svg xmlns="http://www.w3.org/2000/svg" viewBox="0 0 256 256">
<path class="fg-color" fill="#FFFFFF" d="M253.737,153.131c0,26.793-21.717,48.869-48.521,48.869H43.214l0,0c-22.066,0-40.823-18.461-40.823-40.982
	c0-22.697,19.39-40.939,41.768-40.939c1.336,0,2.733,0.114,4.046,0.243c-0.385-1.581-0.545-3.206-0.545-4.903
	c0-11.729,9.53-21.216,21.258-21.216c6.26,0,11.901,2.723,15.78,7.031c6.422-27.278,30.919-47.496,60.138-47.496
	c30.24,0,55.408,21.518,60.739,50.551C232.216,104.287,253.737,126.431,253.737,153.131z"/>
<g class="secondary-color" fill="#E0E0E0">
    <path d="M97.468,130.094c-1.207,0-2.195,0.988-2.195,2.195v5.999c0,1.207,0.989,2.194,2.195,2.194h40.149
        c1.206,0,2.192-0.987,2.192-2.194v-5.999c0-1.207-0.986-2.195-2.192-2.195H97.468z M100.528,137.059c-0.977,0-1.77-0.793-1.77-1.771
        c0-0.977,0.793-1.769,1.77-1.769c0.978,0,1.77,0.792,1.77,1.769C102.298,136.266,101.506,137.059,100.528,137.059z"/>
    <path d="M97.468,143.57c-1.207,0-2.195,0.986-2.195,2.194v5.998c0,1.209,0.989,2.195,2.195,2.195h40.149
        c1.206,0,2.192-0.986,2.192-2.195v-5.998c0-1.208-0.986-2.194-2.192-2.194H97.468z M100.528,150.841c-0.977,0-1.77-0.793-1.77-1.771
        c0-0.977,0.793-1.77,1.77-1.77c0.978,0,1.77,0.793,1.77,1.77C102.298,150.048,101.506,150.841,100.528,150.841z"/>
    <path d="M97.468,157.045c-1.207,0-2.195,0.988-2.195,2.195v5.998c0,1.207,0.989,2.195,2.195,2.195h40.149
        c1.206,0,2.192-0.988,2.192-2.195v-5.998c0-1.207-0.986-2.195-2.192-2.195H97.468z M100.528,164.128c-0.977,0-1.77-0.792-1.77-1.769
        c0-0.979,0.793-1.771,1.77-1.771c0.978,0,1.77,0.792,1.77,1.771C102.298,163.336,101.506,164.128,100.528,164.128z"/>
	<path d="M111.885,113.094c-1.641-2.863-0.283-5.094,3.017-5.094h35.16c3.3,0,7.348,2.228,8.996,5.087l17.395,30.132
		c1.648,2.858,1.646,7.509-0.004,10.367l-17.544,30.37c-1.65,2.858-5.7,5.195-9,5.202l-35.243,0.073c-3.3,0.007-4.65-2.327-3-5.186
		l1.786-2.972c1.65-2.858,5.7-5.074,9-5.074h19.117c3.3,0,7.359-2.455,9.021-5.307l9.835-16.938
		c1.661-2.852,1.688-7.563,0.059-10.434l-9.576-16.881c-1.629-2.87-5.662-5.248-8.962-5.276l-19.499-0.171
		c-3.3-0.028-7.342-2.34-8.983-5.204L111.885,113.094z"/>
</g>
</svg>
