<?xml version="1.0" encoding="utf-8"?>
<svg xmlns="http://www.w3.org/2000/svg" viewBox="0 0 48 48">
<path fill="#666666" d="M1,14.111v23.456C1,37.564,1.648,41,4.796,41h39.196c0,0,3.008-0.6,3.008-3.591V15.213
	c0,0-0.331-3.213-3.008-3.213H24c-0.791,0-1.326-0.939-1.731-1.921c0,0-0.629-2.079-3.62-2.079H4.717C1.708,8,1,10.167,1,12.145
	C1,12.145,1,13.481,1,14.111z"/>
<polygon fill="#FFFFFF" points="23.128,26.532 16.16,26.532 16.16,19.564 11.584,19.564 11.584,26.532 4.617,26.532 4.617,31.107 
	11.584,31.107 11.584,38.075 16.16,38.075 16.16,31.107 23.128,31.107 "/>
</svg>
