<?xml version="1.0" encoding="utf-8"?>
<svg xmlns="http://www.w3.org/2000/svg" viewBox="0 0 48 48">
<g>
	<path fill="#666666" d="M26.931,3.653h-2.577c-0.251-1.738-1.736-3.082-3.543-3.082s-3.292,1.344-3.543,3.082H14.69
		c-1.37,0-2.296,1.104-2.059,2.453l0.365,2.063c0.238,1.351,1.554,2.455,2.924,2.455h9.777c1.37,0,2.687-1.104,2.925-2.455
		l0.365-2.063C29.227,4.757,28.299,3.653,26.931,3.653z M20.811,5.854c-1.017,0-1.841-0.824-1.841-1.841
		c0-1.018,0.824-1.841,1.841-1.841c1.018,0,1.841,0.824,1.841,1.841C22.652,5.029,21.828,5.854,20.811,5.854z"/>
	<path fill="#666666" d="M20.811,42.702V23.049c0-2.224,1.819-4.043,4.043-4.043h11.485V9.758c0-2.223-1.819-4.042-4.043-4.042
		h-1.933c-0.002,0.18-0.009,0.364-0.042,0.55l-0.395,2.233c-0.312,1.771-2.029,3.211-3.827,3.211H15.52
		c-1.798,0-3.515-1.439-3.827-3.211l-0.395-2.233c-0.033-0.186-0.04-0.37-0.042-0.55H9.105c-2.224,0-4.043,1.82-4.043,4.042v29.174
		c0,2.225,1.819,4.043,4.043,4.043h11.733C20.832,42.883,20.811,42.796,20.811,42.702z"/>
</g>
<g>
	<path fill="#FFFFFF" d="M41.325,43.055c0,1.328-1.089,2.416-2.416,2.416H27.481c-1.329,0-2.416-1.088-2.416-2.416V25.639
		c0-1.331,1.087-2.417,2.416-2.417h11.428c1.327,0,2.416,1.086,2.416,2.417V43.055z"/>
</g>
<g>
	<path fill="#666666" d="M39.568,47.43H26.822c-1.857,0-3.37-1.51-3.37-3.369V24.632c0-1.857,1.512-3.369,3.37-3.369h12.746
		c1.858,0,3.369,1.512,3.369,3.369v19.428C42.938,45.92,41.427,47.43,39.568,47.43z M27.434,23.737
		c-1.008,0-1.828,0.819-1.828,1.827v17.563c0,1.01,0.82,1.828,1.828,1.828h11.522c1.009,0,1.827-0.818,1.827-1.828V25.564
		c0-1.008-0.818-1.827-1.827-1.827H27.434z"/>
</g>
<path fill="#666666" d="M35.813,29.254c0,0.74-0.606,1.348-1.348,1.348h-5.626c-0.741,0-1.348-0.607-1.348-1.348v-0.393
	c0-0.74,0.606-1.348,1.348-1.348h5.626c0.741,0,1.348,0.607,1.348,1.348V29.254z"/>
<path fill="#666666" d="M38.928,34.945c0,0.74-0.607,1.348-1.348,1.348H28.81c-0.741,0-1.348-0.607-1.348-1.348v-0.393
	c0-0.74,0.606-1.348,1.348-1.348h8.771c0.74,0,1.348,0.607,1.348,1.348V34.945z"/>
<path fill="#666666" d="M37.945,40.637c0,0.74-0.606,1.348-1.348,1.348H28.81c-0.741,0-1.348-0.607-1.348-1.348v-0.393
	c0-0.74,0.606-1.348,1.348-1.348h7.788c0.741,0,1.348,0.607,1.348,1.348V40.637z"/>
</svg>
