<?xml version="1.0" encoding="utf-8"?>
<svg xmlns="http://www.w3.org/2000/svg" viewBox="0 0 48 48">
<path fill="#666666" d="M39.928,7.524l-3.963-3.965c-1.139-1.139-2.992-1.139-4.131,0l-2.918,2.918L28.68,6.713L10,25.455
	l-0.01,0.009c-0.099,0.1-0.156,0.217-0.193,0.342c-0.002,0.008-0.008,0.01-0.008,0.018L7.248,35.3
	c-0.075,0.282,0.006,0.583,0.211,0.785c0.208,0.208,0.508,0.289,0.791,0.217l9.477-2.539c0.006-0.006,0.01-0.01,0.016-0.01
	c0.125-0.04,0.244-0.096,0.342-0.195l0.009-0.01l18.679-18.74l0.24-0.239l0.006-0.009l2.91-2.907
	C41.063,10.514,41.066,8.66,39.928,7.524z M28.93,9.429l1.668,1.664L14.608,27.128l-1.665-1.666L28.93,9.429z M12.342,32.739
	l-1.535-1.533l0.736-2.748l1.773,1.773l1.771,1.772L12.342,32.739z M18.077,30.595l-1.665-1.664L32.4,12.897l1.668,1.663
	L18.077,30.595z M33.57,5.751c0.363-0.36,0.949-0.361,1.311,0.001l2.854,2.854c0.361,0.361,0.361,0.948,0,1.309l-1.439,1.438
	L32.133,7.19L33.57,5.751z"/>
<path fill="#666666" d="M39.479,43.378c0,1.056-0.862,1.918-1.918,1.918H9.138c-1.054,0-1.917-0.862-1.917-1.918v-2.716
	c0-1.056,0.863-1.918,1.917-1.918h28.424c1.056,0,1.918,0.862,1.918,1.918V43.378z"/>
</svg>
