<?xml version="1.0" encoding="utf-8"?>
<svg xmlns="http://www.w3.org/2000/svg" viewBox="0 0 48 48">
<g>
	<path fill="#666666" d="M40.41,11.528h-2.591H10.18H7.589c-0.475,0-0.848,0.388-0.829,0.863l0.104,2.584c0,0.001,0,0.003,0,0.005
		l1.594,29.371c0.076,1.899,1.693,3.453,3.593,3.453h23.897c1.899,0,3.518-1.554,3.593-3.453l1.576-28.9c0-0.001,0-0.001,0-0.002
		l0.122-3.059C41.26,11.916,40.887,11.528,40.41,11.528z M14.759,39.166c-0.847,0-1.592-0.775-1.658-1.723l-1.074-15.555
		c-0.066-0.948,0.659-1.723,1.609-1.723c0.949,0,1.765,0.775,1.813,1.726l0.765,15.551C16.26,38.391,15.605,39.166,14.759,39.166z
		 M25.559,37.438c-0.01,0.95-0.71,1.728-1.558,1.728s-1.549-0.777-1.558-1.728L22.29,21.893c-0.009-0.95,0.761-1.728,1.71-1.728
		s1.719,0.778,1.711,1.728L25.559,37.438z M34.903,37.443c-0.064,0.947-0.813,1.723-1.659,1.723c-0.849,0-1.503-0.775-1.457-1.725
		l0.766-15.551c0.046-0.95,0.862-1.726,1.813-1.726c0.949,0,1.673,0.775,1.609,1.723L34.903,37.443z"/>
	<path fill="#666666" d="M42.432,5.533C42.26,3.91,40.964,2.614,39.34,2.442h-5.235c-0.12,0-0.241,0-0.344-0.018
		c-0.795-0.104-1.384-0.57-1.384-1.106c0-0.622-0.775-1.123-1.728-1.123h-13.3c-0.95,0-1.728,0.5-1.728,1.123
		c0,0.536-0.587,1.002-1.381,1.106c-0.104,0.018-0.224,0.018-0.346,0.018H8.661C7.037,2.614,5.741,3.91,5.568,5.533v0.605
		c0,0.024,0.013,0.044,0.014,0.068C5.58,6.229,5.568,6.249,5.568,6.274v0.728c0,0.475,0.389,0.864,0.864,0.864h0.864h33.408h0.863
		c0.477,0,0.864-0.389,0.864-0.864V6.274c0-0.025-0.012-0.045-0.014-0.068c0-0.023,0.014-0.044,0.014-0.068V5.533z"/>
</g>
</svg>
