<?xml version="1.0" encoding="utf-8"?>
<svg xmlns="http://www.w3.org/2000/svg" viewBox="0 0 48 48">
<path class="up-arrow-icon" fill="#DDDDDD" d="M34.618,15.721l-9.613-9.614c-0.39-0.39-0.904-0.584-1.417-0.583c-0.514-0.001-1.028,0.193-1.418,0.583
	l-9.613,9.615c-0.778,0.778-0.778,2.05,0,2.828l0.788,0.788c0.778,0.778,2.008,0.778,2.787,0L21,14.425V41c0,1.1,0.983,2,2.083,2
	h0.854c1.1,0,2.063-0.9,2.063-2V14.271l5.033,5.065c0.777,0.778,2.035,0.778,2.813,0l0.78-0.788
	C35.403,17.771,35.396,16.499,34.618,15.721z"/>
</svg>
