<?xml version="1.0" encoding="utf-8"?>
<svg xmlns="http://www.w3.org/2000/svg" viewBox="0 0 48 48">
<path fill="#BBBBBB" d="M38.745,19.45c-1.014-5.523-5.803-9.622-11.555-9.622c-5.559,0-10.218,3.846-11.44,9.036
	c-0.738-0.82-1.812-1.338-3.001-1.338c-2.231,0-4.045,1.806-4.045,4.038c0,0.323,0.031,0.632,0.104,0.933
	c-0.25-0.023-0.515-0.043-0.77-0.043c-4.257,0-7.945,3.535-7.945,7.852c0,4.284,3.568,7.866,7.765,7.866h13.445v-6.157h-4.229
	l7.999-7.998l7.998,7.998h-4.227v6.157h9.83c5.101,0,9.23-4.27,9.23-9.367C47.906,23.727,43.813,19.45,38.745,19.45z"/>
</svg>
